HIERARCHY
ROOT Hips
{
	OFFSET 0.00 0.00 0.00
	CHANNELS 6 Xposition Yposition Zposition Xrotation Yrotation Zrotation
	JOINT Spine
	{
		OFFSET 0.00000 1.84593 2.76889
		CHANNELS 3 Xrotation Yrotation Zrotation
		JOINT Spine1
		{
			OFFSET 0.00000 0.64108 3.63577
			CHANNELS 3 Xrotation Yrotation Zrotation
			JOINT Spine2
			{
				OFFSET 0.00000 0.32177 3.67781
				CHANNELS 3 Xrotation Yrotation Zrotation
				JOINT Spine3
				{
					OFFSET 0.00000 0.00000 3.69186
					CHANNELS 3 Xrotation Yrotation Zrotation
					JOINT Neck
					{
						OFFSET 0.00000 -1.38444 9.69113
						CHANNELS 3 Xrotation Yrotation Zrotation
						JOINT Head
						{
							OFFSET 0.00000 -0.88149 4.99919
							CHANNELS 3 Xrotation Yrotation Zrotation
							End Site
							{
								OFFSET 0.00000 0.00001 5.97620
							}
						}
					}
					JOINT RightShoulder
					{
						OFFSET -1.20115 -2.00191 6.48621
						CHANNELS 3 Xrotation Yrotation Zrotation
						JOINT RightArm
						{
							OFFSET -5.96571 0.00000 0.00000
							CHANNELS 3 Xrotation Yrotation Zrotation
							JOINT RightForeArm
							{
								OFFSET -11.55549 0.00000 0.00000
								CHANNELS 3 Xrotation Yrotation Zrotation
								JOINT RightHand
								{
									OFFSET -10.15554 0.00000 0.00000
									CHANNELS 3 Xrotation Yrotation Zrotation
									JOINT RightHandEnd
									{
										OFFSET -2.81846 0.00000 0.00000
										CHANNELS 3 Xrotation Yrotation Zrotation
										End Site
										{
											OFFSET -2.81846 0.00000 0.00000
										}
									}
									JOINT RightHandThumb1
									{
										OFFSET -1.12738 -1.87897 -0.75159
										CHANNELS 3 Yrotation Xrotation Zrotation
										End Site
										{
											OFFSET -2.72242 -0.72947 0.00000
										}
									}
								}
							}
						}
					}
					JOINT LeftShoulder
					{
						OFFSET 1.20115 -2.00191 6.48621
						CHANNELS 3 Xrotation Yrotation Zrotation
						JOINT LeftArm
						{
							OFFSET 5.96571 0.00000 0.00000
							CHANNELS 3 Xrotation Yrotation Zrotation
							JOINT LeftForeArm
							{
								OFFSET 11.55549 0.00000 0.00000
								CHANNELS 3 Xrotation Yrotation Zrotation
								JOINT LeftHand
								{
									OFFSET 10.15554 0.00000 0.00000
									CHANNELS 3 Xrotation Yrotation Zrotation
									JOINT LeftHandEnd
									{
										OFFSET 2.81846 0.00000 0.00000
										CHANNELS 3 Xrotation Yrotation Zrotation
										End Site
										{
											OFFSET 2.81846 0.00000 0.00000
										}
									}
									JOINT LeftHandThumb1
									{
										OFFSET 1.12738 -1.87897 -0.75159
										CHANNELS 3 Yrotation Xrotation Zrotation
										End Site
										{
											OFFSET 2.72242 -0.72947 0.00000
										}
									}
								}
							}
						}
					}
				}
			}
		}
	}
	JOINT RightUpLeg
	{
		OFFSET -3.56341 0.00000 -1.04100
		CHANNELS 3 Xrotation Yrotation Zrotation
		JOINT RightLeg
		{
			OFFSET 0.00001 0.00000 -16.70611
			CHANNELS 3 Xrotation Yrotation Zrotation
			JOINT RightFoot
			{
				OFFSET 0.00001 0.00000 -16.32118
				CHANNELS 3 Xrotation Yrotation Zrotation
				JOINT RightToeBase
				{
					OFFSET 0.00000 -5.82844 -2.12138
					CHANNELS 3 Xrotation Yrotation Zrotation
					End Site
					{
						OFFSET 0.00000 -2.88276 -0.00000
					}
				}
			}
		}
	}
	JOINT LeftUpLeg
	{
		OFFSET 3.56341 0.00000 -1.04100
		CHANNELS 3 Xrotation Yrotation Zrotation
		JOINT LeftLeg
		{
			OFFSET 0.00001 0.00000 -16.70611
			CHANNELS 3 Xrotation Yrotation Zrotation
			JOINT LeftFoot
			{
				OFFSET 0.00001 0.00000 -16.32118
				CHANNELS 3 Xrotation Yrotation Zrotation
				JOINT LeftToeBase
				{
					OFFSET 0.00000 -5.82844 -2.12138
					CHANNELS 3 Xrotation Yrotation Zrotation
					End Site
					{
						OFFSET 0.00000 -2.88276 -0.00000
					}
				}
			}
		}
	}
}
MOTION
Frames: 15
Frame Time: 0.008342
 -7.6170 -44.3512 36.3749 -1.1800 0.4523 93.0603 -1.2521 -1.1064 0.0508 -0.9517 -0.3204 -0.0478 2.4669 0.7137 -0.1726 0.6673 0.3753 -0.6413 0.6101 4.3498 0.5628 -0.2016 1.4187 -2.6073 -2.7407 9.1177 3.3377 8.5403 -15.6024 4.7116 0.0000 0.0000 9.7312 -15.3394 14.3855 -2.6518 -0.0000 -0.0000 0.0000 -0.0000 -0.0000 0.0000 -2.7304 -12.3116 -2.0977 20.6107 7.8749 -6.5748 -0.0000 -0.0000 -2.6596 -21.1659 -7.1532 -4.6390 -0.0000 -0.0000 0.0000 -0.0000 0.0000 0.0000 -0.1003 -1.4375 -20.7218 7.2901 0.0000 0.0000 -8.1338 6.1256 0.4878 2.6991 0.0000 0.0000 1.2713 0.8283 15.3369 3.3246 0.0000 0.0000 -7.7615 -3.2563 4.8234 0.2822 0.0000 0.0000
 -7.6172 -44.3502 36.3747 -1.1844 0.4497 93.0538 -1.2525 -1.1097 0.0517 -0.9533 -0.3242 -0.0481 2.4775 0.7171 -0.1684 0.6678 0.3728 -0.6407 0.6201 4.3540 0.5649 -0.2107 1.4231 -2.6107 -2.7325 9.1296 3.3383 8.5385 -15.6263 4.7177 0.0000 0.0000 9.7239 -15.3324 14.3766 -2.6561 0.0000 0.0000 0.0000 0.0000 -0.0000 -0.0000 -2.7630 -12.3237 -2.1174 20.6106 7.9019 -6.5736 -0.0000 -0.0000 -2.6497 -21.1312 -7.1438 -4.6485 0.0000 0.0000 0.0000 -0.0000 -0.0000 -0.0000 -0.0985 -1.4409 -20.7178 7.2906 0.0000 0.0000 -8.1342 6.1303 0.4881 2.6980 0.0000 0.0000 1.2655 0.8218 15.3703 3.3433 0.0000 0.0000 -7.7736 -3.2556 4.7964 0.2834 0.0000 0.0000
 -7.6174 -44.3489 36.3743 -1.1909 0.4465 93.0460 -1.2530 -1.1146 0.0531 -0.9552 -0.3296 -0.0485 2.4910 0.7221 -0.1633 0.6684 0.3695 -0.6394 0.6328 4.3592 0.5668 -0.2213 1.4296 -2.6157 -2.7223 9.1447 3.3377 8.5368 -15.6567 4.7267 0.0000 0.0000 9.7139 -15.3257 14.3655 -2.6608 0.0000 0.0000 0.0000 0.0000 -0.0000 0.0000 -2.8059 -12.3408 -2.1432 20.6091 7.9382 -6.5741 -0.0000 -0.0000 -2.6354 -21.0839 -7.1319 -4.6621 -0.0000 0.0000 0.0000 -0.0000 -0.0000 0.0000 -0.0961 -1.4461 -20.7116 7.2905 0.0000 0.0000 -8.1339 6.1382 0.4875 2.6940 0.0000 0.0000 1.2572 0.8125 15.4141 3.3686 0.0000 0.0000 -7.7903 -3.2557 4.7600 0.2851 0.0000 0.0000
 -7.6178 -44.3473 36.3737 -1.1988 0.4428 93.0371 -1.2542 -1.1205 0.0549 -0.9567 -0.3365 -0.0486 2.5073 0.7284 -0.1572 0.6690 0.3655 -0.6384 0.6480 4.3650 0.5690 -0.2332 1.4376 -2.6222 -2.7114 9.1626 3.3373 8.5350 -15.6931 4.7366 0.0000 0.0000 9.7023 -15.3159 14.3522 -2.6671 0.0000 0.0000 0.0000 0.0000 -0.0000 -0.0000 -2.8589 -12.3635 -2.1741 20.6068 7.9837 -6.5767 -0.0000 -0.0000 -2.6172 -21.0293 -7.1189 -4.6792 -0.0000 -0.0000 -0.0000 -0.0000 -0.0000 -0.0000 -0.0936 -1.4525 -20.7031 7.2904 0.0000 0.0000 -8.1329 6.1486 0.4858 2.6877 0.0000 0.0000 1.2463 0.8011 15.4685 3.4000 0.0000 0.0000 -7.8111 -3.2566 4.7141 0.2872 0.0000 0.0000
 -7.6182 -44.3452 36.3731 -1.2072 0.4384 93.0276 -1.2540 -1.1272 0.0566 -0.9592 -0.3432 -0.0492 2.5252 0.7347 -0.1499 0.6698 0.3614 -0.6367 0.6658 4.3717 0.5712 -0.2454 1.4471 -2.6301 -2.6985 9.1822 3.3354 8.5333 -15.7329 4.7499 0.0000 0.0000 9.6884 -15.3076 14.3366 -2.6736 0.0000 -0.0000 -0.0000 -0.0000 -0.0000 0.0000 -2.9221 -12.3880 -2.2129 20.6063 8.0352 -6.5743 -0.0000 -0.0000 -2.6001 -20.9689 -7.1057 -4.6979 -0.0000 0.0000 -0.0000 -0.0000 -0.0000 -0.0000 -0.0908 -1.4587 -20.6934 7.2908 0.0000 0.0000 -8.1319 6.1603 0.4839 2.6798 0.0000 0.0000 1.2338 0.7889 15.5309 3.4365 0.0000 0.0000 -7.8350 -3.2579 4.6607 0.2888 0.0000 0.0000
 -7.6188 -44.3428 36.3724 -1.2162 0.4341 93.0174 -1.2542 -1.1344 0.0586 -0.9609 -0.3508 -0.0495 2.5443 0.7418 -0.1428 0.6708 0.3571 -0.6356 0.6849 4.3788 0.5734 -0.2574 1.4574 -2.6387 -2.6860 9.2020 3.3341 8.5321 -15.7745 4.7636 0.0000 0.0000 9.6748 -15.2976 14.3191 -2.6812 0.0000 0.0000 -0.0000 0.0000 -0.0000 -0.0000 -2.9885 -12.4162 -2.2521 20.6047 8.0912 -6.5750 -0.0000 -0.0000 -2.5810 -20.9063 -7.0934 -4.7182 0.0000 0.0000 -0.0000 0.0000 -0.0000 -0.0000 -0.0883 -1.4651 -20.6810 7.2910 0.0000 0.0000 -8.1301 6.1725 0.4803 2.6718 0.0000 0.0000 1.2189 0.7756 15.6013 3.4777 0.0000 0.0000 -7.8619 -3.2598 4.5994 0.2903 0.0000 0.0000
 -7.6194 -44.3401 36.3717 -1.2253 0.4298 93.0071 -1.2539 -1.1418 0.0605 -0.9630 -0.3581 -0.0498 2.5641 0.7486 -0.1359 0.6720 0.3529 -0.6345 0.7051 4.3867 0.5758 -0.2683 1.4679 -2.6473 -2.6731 9.2214 3.3328 8.5315 -15.8158 4.7788 0.0000 0.0000 9.6613 -15.2887 14.3001 -2.6892 -0.0000 -0.0000 -0.0000 0.0000 -0.0000 -0.0000 -3.0571 -12.4452 -2.2925 20.6042 8.1492 -6.5746 -0.0000 -0.0000 -2.5631 -20.8449 -7.0838 -4.7395 0.0000 -0.0000 0.0000 0.0000 0.0000 0.0000 -0.0859 -1.4711 -20.6659 7.2910 0.0000 0.0000 -8.1274 6.1839 0.4744 2.6640 0.0000 0.0000 1.2025 0.7624 15.6775 3.5218 0.0000 0.0000 -7.8907 -3.2616 4.5325 0.2910 0.0000 0.0000
 -7.6204 -44.3371 36.3711 -1.2349 0.4314 92.9972 -1.2591 -1.1491 0.0619 -0.9653 -0.3660 -0.0501 2.5848 0.7556 -0.1297 0.6734 0.3492 -0.6341 0.7245 4.3950 0.5784 -0.2771 1.4775 -2.6558 -2.6617 9.2376 3.3321 8.5326 -15.8531 4.7945 0.0000 0.0000 9.6491 -15.2804 14.2796 -2.6982 0.0000 0.0000 0.0000 -0.0000 0.0000 -0.0000 -3.1229 -12.4736 -2.3299 20.6041 8.2049 -6.5752 -0.0000 -0.0000 -2.5464 -20.7863 -7.0776 -4.7607 -0.0000 -0.0000 -0.0000 0.0000 -0.0000 0.0000 -0.0909 -1.4768 -20.6466 7.2916 0.0000 0.0000 -8.1233 6.1939 0.4642 2.6572 0.0000 0.0000 1.1774 0.7487 15.7569 3.5702 0.0000 0.0000 -7.9215 -3.2644 4.4613 0.2916 0.0000 0.0000
 -7.6210 -44.3337 36.3706 -1.2419 0.4265 92.9871 -1.2566 -1.1553 0.0638 -0.9674 -0.3708 -0.0504 2.6037 0.7598 -0.1253 0.6748 0.3453 -0.6332 0.7449 4.4051 0.5813 -0.2846 1.4864 -2.6634 -2.6500 9.2535 3.3317 8.5353 -15.8870 4.8106 0.0000 0.0000 9.6395 -15.2736 14.2585 -2.7077 0.0000 0.0000 0.0000 0.0000 -0.0000 -0.0000 -3.1832 -12.5007 -2.3647 20.6051 8.2585 -6.5748 -0.0000 -0.0000 -2.5330 -20.7349 -7.0745 -4.7799 0.0000 -0.0000 0.0000 0.0000 0.0000 0.0000 -0.0876 -1.4796 -20.6267 7.2909 0.0000 0.0000 -8.1191 6.2003 0.4540 2.6527 0.0000 0.0000 1.1616 0.7385 15.8384 3.6150 0.0000 0.0000 -7.9506 -3.2654 4.3880 0.2903 0.0000 0.0000
 -7.6218 -44.3303 36.3703 -1.2494 0.4261 92.9782 -1.2580 -1.1612 0.0647 -0.9691 -0.3763 -0.0506 2.6216 0.7639 -0.1225 0.6766 0.3423 -0.6333 0.7640 4.4152 0.5849 -0.2897 1.4938 -2.6695 -2.6399 9.2648 3.3329 8.5403 -15.9134 4.8266 0.0000 0.0000 9.6325 -15.2683 14.2368 -2.7169 0.0000 -0.0000 -0.0000 -0.0000 0.0000 0.0000 -3.2338 -12.5254 -2.3915 20.6069 8.3057 -6.5771 -0.0000 -0.0000 -2.5212 -20.6934 -7.0745 -4.7977 -0.0000 0.0000 -0.0000 -0.0000 -0.0000 0.0000 -0.0890 -1.4829 -20.6022 7.2887 0.0000 0.0000 -8.1123 6.2039 0.4381 2.6489 0.0000 0.0000 1.1400 0.7280 15.9210 3.6613 0.0000 0.0000 -7.9807 -3.2668 4.3122 0.2885 0.0000 0.0000
 -7.6227 -44.3265 36.3701 -1.2552 0.4272 92.9698 -1.2597 -1.1659 0.0657 -0.9709 -0.3798 -0.0506 2.6381 0.7659 -0.1220 0.6783 0.3396 -0.6335 0.7821 4.4269 0.5887 -0.2925 1.4993 -2.6735 -2.6314 9.2731 3.3351 8.5482 -15.9324 4.8421 0.0000 0.0000 9.6290 -15.2651 14.2155 -2.7264 -0.0000 0.0000 -0.0000 -0.0000 -0.0000 0.0000 -3.2744 -12.5462 -2.4128 20.6109 8.3462 -6.5785 -0.0000 -0.0000 -2.5130 -20.6620 -7.0782 -4.8131 -0.0000 -0.0000 -0.0000 -0.0000 0.0000 0.0000 -0.0917 -1.4840 -20.5750 7.2862 0.0000 0.0000 -8.1047 6.2042 0.4193 2.6461 0.0000 0.0000 1.1180 0.7202 16.0041 3.7057 0.0000 0.0000 -8.0091 -3.2670 4.2351 0.2854 0.0000 0.0000
 -7.6233 -44.3226 36.3701 -1.2595 0.4261 92.9625 -1.2582 -1.1693 0.0661 -0.9725 -0.3819 -0.0510 2.6519 0.7658 -0.1237 0.6802 0.3373 -0.6335 0.7998 4.4396 0.5932 -0.2937 1.5036 -2.6758 -2.6234 9.2786 3.3384 8.5587 -15.9430 4.8573 0.0000 0.0000 9.6286 -15.2642 14.1940 -2.7365 -0.0000 -0.0000 0.0000 -0.0000 -0.0000 0.0000 -3.3014 -12.5632 -2.4254 20.6150 8.3786 -6.5822 -0.0000 -0.0000 -2.5074 -20.6414 -7.0834 -4.8252 0.0000 0.0000 -0.0000 0.0000 0.0000 0.0000 -0.0910 -1.4835 -20.5479 7.2820 0.0000 0.0000 -8.0960 6.2013 0.3994 2.6429 0.0000 0.0000 1.1004 0.7148 16.0839 3.7461 0.0000 0.0000 -8.0355 -3.2662 4.1603 0.2818 0.0000 0.0000
 -7.6242 -44.3186 36.3702 -1.2638 0.4320 92.9564 -1.2632 -1.1724 0.0661 -0.9733 -0.3831 -0.0514 2.6641 0.7640 -0.1274 0.6823 0.3354 -0.6339 0.8156 4.4533 0.5984 -0.2925 1.5060 -2.6760 -2.6177 9.2805 3.3430 8.5711 -15.9454 4.8710 0.0000 0.0000 9.6318 -15.2649 14.1739 -2.7459 0.0000 0.0000 0.0000 -0.0000 -0.0000 0.0000 -3.3174 -12.5751 -2.4314 20.6208 8.4027 -6.5860 -0.0000 -0.0000 -2.5044 -20.6301 -7.0910 -4.8341 0.0000 -0.0000 -0.0000 -0.0000 -0.0000 -0.0000 -0.0981 -1.4824 -20.5180 7.2779 0.0000 0.0000 -8.0857 6.1968 0.3756 2.6384 0.0000 0.0000 1.0751 0.7101 16.1629 3.7866 0.0000 0.0000 -8.0612 -3.2651 4.0850 0.2776 0.0000 0.0000
 -7.6248 -44.3144 36.3704 -1.2661 0.4339 92.9512 -1.2626 -1.1737 0.0658 -0.9755 -0.3834 -0.0515 2.6748 0.7601 -0.1330 0.6843 0.3338 -0.6344 0.8313 4.4680 0.6043 -0.2909 1.5082 -2.6749 -2.6117 9.2824 3.3478 8.5848 -15.9419 4.8847 0.0000 0.0000 9.6369 -15.2679 14.1552 -2.7555 0.0000 0.0000 0.0000 -0.0000 -0.0000 -0.0000 -3.3204 -12.5837 -2.4305 20.6264 8.4201 -6.5919 -0.0000 -0.0000 -2.5029 -20.6272 -7.0978 -4.8398 -0.0000 0.0000 0.0000 0.0000 0.0000 -0.0000 -0.0995 -1.4795 -20.4904 7.2722 0.0000 0.0000 -8.0753 6.1906 0.3530 2.6313 0.0000 0.0000 1.0569 0.7083 16.2396 3.8219 0.0000 0.0000 -8.0841 -3.2623 4.0115 0.2729 0.0000 0.0000
 -7.6255 -44.3102 36.3707 -1.2689 0.4383 92.9474 -1.2642 -1.1750 0.0653 -0.9771 -0.3832 -0.0517 2.6835 0.7545 -0.1402 0.6865 0.3326 -0.6347 0.8464 4.4829 0.6104 -0.2885 1.5106 -2.6722 -2.6066 9.2826 3.3528 8.5989 -15.9318 4.8973 0.0000 0.0000 9.6438 -15.2729 14.1382 -2.7648 -0.0000 0.0000 0.0000 -0.0000 -0.0000 0.0000 -3.3143 -12.5887 -2.4251 20.6330 8.4316 -6.5987 -0.0000 -0.0000 -2.5029 -20.6307 -7.1058 -4.8420 -0.0000 -0.0000 0.0000 0.0000 0.0000 0.0000 -0.1036 -1.4768 -20.4642 7.2662 0.0000 0.0000 -8.0641 6.1847 0.3307 2.6208 0.0000 0.0000 1.0364 0.7065 16.3151 3.8561 0.0000 0.0000 -8.1064 -3.2593 3.9383 0.2686 0.0000 0.0000
